<svg width="231" height="270" viewBox="0 0 231 270" fill="none" xmlns="http://www.w3.org/2000/svg">
<path fill-rule="evenodd" clip-rule="evenodd" d="M101.581 0.0238263C128.091 1.02007 137.029 37.1327 158.353 52.8852C179.367 68.4091 213.027 67.598 224.678 90.9588C236.496 114.653 230.743 146.092 215.718 167.901C201.812 188.087 169.061 182.107 150.692 198.354C128.692 217.812 130.046 261.537 101.581 268.852C74.4869 275.815 49.1306 249.66 29.8712 229.403C12.9299 211.585 5.30401 187.642 1.32041 163.4C-2.1741 142.135 1.60002 121.109 8.73291 100.769C15.7138 80.8636 27.3113 64.0196 41.6161 48.4981C59.4668 29.1291 75.2335 -0.966336 101.581 0.0238263Z" fill="#7100FE"/>
</svg>
