<svg width="186" height="217" viewBox="0 0 186 217" fill="none" xmlns="http://www.w3.org/2000/svg">
<path fill-rule="evenodd" clip-rule="evenodd" d="M73.3393 1.03339C97.1461 -5.44104 117.406 20.0375 137.09 34.8883C156.368 49.4324 183.886 61.9266 185.908 85.9615C187.969 110.461 154.966 123.109 146.452 146.179C138.521 167.672 157.861 199.621 139.098 212.806C120.236 226.061 95.4092 204.256 73.3393 197.558C58.4796 193.047 43.6608 189.602 31.3797 180.112C19.4099 170.862 9.95351 158.906 4.89313 144.666C-0.272261 130.13 -1.92278 114.276 2.76183 99.5794C7.46451 84.8257 21.6375 76.4285 30.6581 63.8333C45.7656 42.7388 48.2743 7.85001 73.3393 1.03339Z" fill="#7100FE"/>
</svg>
