<svg width="231" height="238" viewBox="0 0 231 238" fill="none" xmlns="http://www.w3.org/2000/svg">
<path fill-rule="evenodd" clip-rule="evenodd" d="M132.983 6.30593C157.386 0.976204 187.806 -6.51677 205.955 10.6399C224.39 28.0668 210.835 59.3195 215.447 84.261C219.193 104.52 234.236 122.444 230.37 142.68C226.276 164.109 209.878 180.114 194.229 195.32C176.033 213.002 157.735 242.91 132.983 237.313C106.61 231.349 111.459 186.623 89.027 171.53C64.9755 155.347 23.073 175.883 6.42281 152.157C-9.05188 130.105 6.46575 97.3307 21.0741 74.6963C33.9211 54.7909 59.7862 50.5043 80.0039 38.1487C98.026 27.135 112.347 10.813 132.983 6.30593Z" fill="#FF4F12"/>
</svg>
