<svg width="191" height="233" viewBox="0 0 191 233" fill="none" xmlns="http://www.w3.org/2000/svg">
<path fill-rule="evenodd" clip-rule="evenodd" d="M176.037 95.9093C175.696 113.693 183.535 129.854 182.22 147.593C180.148 175.548 190.04 213.188 166.24 228.066C142.977 242.609 114.382 216.453 89.1077 205.802C70.6165 198.01 54.3483 187.944 39.3735 174.604C23.7732 160.706 5.09576 147.596 0.828576 127.157C-3.48131 106.513 10.0715 87.5006 17.0306 67.5843C25.1505 44.3456 21.463 8.86332 44.8645 1.12957C69.625 -7.05329 86.9872 31.7714 112.722 35.96C137.297 39.9597 166.528 6.76808 184.592 23.8714C202.599 40.9217 176.512 71.1278 176.037 95.9093Z" fill="#7100FE"/>
</svg>
