<svg width="288" height="263" viewBox="0 0 288 263" fill="none" xmlns="http://www.w3.org/2000/svg">
<path fill-rule="evenodd" clip-rule="evenodd" d="M141.463 1.56954C170.639 -1.03082 202.217 -2.42544 226.227 14.3917C250.404 31.3253 258.101 62.2709 267.925 90.1458C278.027 118.808 296.275 149.983 283.776 177.679C271.339 205.238 233.85 207.536 207.946 223.05C185.222 236.659 167.869 264.773 141.463 262.912C115.125 261.055 103.533 228.63 81.4445 214.132C57.5296 198.437 21.2949 200.049 7.47079 174.97C-6.66408 149.327 1.65361 116.521 12.6838 89.391C23.1827 63.5676 43.9847 44.2702 66.9863 28.5842C89.3619 13.325 114.506 3.97211 141.463 1.56954Z" fill="#FF4F12"/>
</svg>
